<svg xmlns="http://www.w3.org/2000/svg" xmlns:svg="http://www.w3.org/2000/svg" xmlns:xlink="http://www.w3.org/1999/xlink" id="Layer_1" width="100" height="100" x="0" style="enable-background:new 0 0 100 100" y="0" version="1.1" viewBox="0 0 100 100" xml:space="preserve"><metadata id="metadata43"/><defs id="defs41"><linearGradient id="SVGID_1_" x1="32.334" x2="32.334" y1="95.702" y2="5.269" gradientTransform="matrix(-0.51147354,-0.66065512,0.66065512,-0.51147354,17.508375,111.75422)" gradientUnits="userSpaceOnUse"><stop id="stop6" offset="0" style="stop-color:#ffde17"/><stop id="stop8" offset=".08" style="stop-color:#ffd210"/><stop id="stop10" offset=".177" style="stop-color:#fec90d"/><stop id="stop12" offset=".281" style="stop-color:#fdc70c"/><stop id="stop14" offset=".668" style="stop-color:#f3903f"/><stop id="stop16" offset=".888" style="stop-color:#ed683c"/><stop id="stop18" offset="1" style="stop-color:#e93e3a"/></linearGradient><linearGradient id="SVGID_2_" x1="67.666" x2="67.666" y1="94.171" y2="3.738" gradientTransform="matrix(0.79584193,-0.60550444,0.60550444,0.79584193,-18.131526,59.12846)" gradientUnits="userSpaceOnUse"><stop id="stop23" offset="0" style="stop-color:#ffde17"/><stop id="stop25" offset=".08" style="stop-color:#ffd210"/><stop id="stop27" offset=".177" style="stop-color:#fec90d"/><stop id="stop29" offset=".281" style="stop-color:#fdc70c"/><stop id="stop31" offset=".668" style="stop-color:#f3903f"/><stop id="stop33" offset=".888" style="stop-color:#ed683c"/><stop id="stop35" offset="1" style="stop-color:#e93e3a"/></linearGradient><linearGradient id="SVGID_1_-5" x1="32.334" x2="32.334" y1="95.702" y2="5.269" gradientTransform="matrix(0.67345652,-0.57602818,-0.57602818,-0.67345652,76.296163,117.29274)" gradientUnits="userSpaceOnUse"><stop id="stop6-0" offset="0" style="stop-color:#ffde17"/><stop id="stop8-0" offset=".08" style="stop-color:#ffd210"/><stop id="stop10-8" offset=".177" style="stop-color:#fec90d"/><stop id="stop12-0" offset=".281" style="stop-color:#fdc70c"/><stop id="stop14-2" offset=".668" style="stop-color:#f3903f"/><stop id="stop16-2" offset=".888" style="stop-color:#ed683c"/><stop id="stop18-5" offset="1" style="stop-color:#e93e3a"/></linearGradient><linearGradient id="SVGID_1_-7" x1="32.821" x2="32.797" y1=".797" y2="58.206" gradientTransform="matrix(-1.1690746,-0.00213734,0.00213734,-1.1690746,87.955434,70.140678)" gradientUnits="userSpaceOnUse" spreadMethod="pad"><stop id="stop6-9" offset="0" style="stop-color:#ffde17"/><stop id="stop8-02" offset=".08" style="stop-color:#ffd210"/><stop id="stop10-4" offset=".177" style="stop-color:#fec90d"/><stop id="stop12-4" offset=".281" style="stop-color:#fdc70c"/><stop id="stop14-27" offset=".668" style="stop-color:#f3903f"/><stop id="stop16-7" offset=".888" style="stop-color:#ed683c"/><stop id="stop18-6" offset="1" style="stop-color:#e93e3a"/></linearGradient><linearGradient id="SVGID_1_-6" x1="32.334" x2="32.334" y1="95.702" y2="5.269" gradientTransform="matrix(0.51147354,-0.66065512,-0.66065512,-0.51147354,82.756498,111.75421)" gradientUnits="userSpaceOnUse" xlink:href="#SVGID_1_"><stop id="stop6-97" offset="0" style="stop-color:#ffde17"/><stop id="stop8-9" offset=".08" style="stop-color:#ffd210"/><stop id="stop10-40" offset=".177" style="stop-color:#fec90d"/><stop id="stop12-6" offset=".281" style="stop-color:#fdc70c"/><stop id="stop14-4" offset=".668" style="stop-color:#f3903f"/><stop id="stop16-3" offset=".888" style="stop-color:#ed683c"/><stop id="stop18-4" offset="1" style="stop-color:#e93e3a"/></linearGradient><linearGradient id="linearGradient3519" x1="92.088" x2="39.388" y1="86.567" y2="11.866" gradientUnits="userSpaceOnUse" xlink:href="#SVGID_2_"/><linearGradient id="linearGradient8109" x1="50.588" x2="49.138" y1="90.317" y2="3.616" gradientUnits="userSpaceOnUse" xlink:href="#SVGID_2_"/></defs><g id="g3508" style="fill-opacity:1;fill:url(#linearGradient3519)"><path style="fill:url(#linearGradient3519);fill-opacity:1" id="path20" d="m 31.026619,50.387301 -11.846867,9.171742 c -0.860172,0.665941 -2.096769,0.508554 -2.762708,-0.351618 l -4.95669,-6.40241 C 11.001562,52.212409 10.055759,52.470219 9.9611795,53.213341 L 0.54789418,88.840995 c -0.14649667,1.15103 0.66776922,2.202793 1.81879932,2.349289 L 39.216443,91.001491 c 0.74313,0.09458 1.229628,-0.75649 0.770836,-1.349097 L 35.03059,83.249985 c -0.665938,-0.860173 -0.508552,-2.096769 0.351621,-2.762708 l 11.846867,-9.171742 c 0.632908,-0.489992 0.748673,-1.399564 0.258681,-2.032471 L 33.05909,50.645981 C 32.5691,50.013074 31.659527,49.89731 31.026619,50.387301 Z"/><path style="fill:url(#linearGradient8109);fill-opacity:1" id="path20-49" d="m 31.761047,2.5154716 -0.03834,20.9638434 c -0.0028,1.522137 -1.238414,2.753256 -2.760547,2.750473 l -11.329504,-0.02071 c -1.048659,-0.0019 -1.57589,1.264404 -0.836053,2.006949 L 48.077518,69.20615 c 1.145927,1.150137 3.007099,1.153535 4.157227,0.0077 L 83.66534,28.338308 c 0.742547,-0.73984 0.219952,-2.008073 -0.828709,-2.009991 L 71.50713,26.307607 c -1.522134,-0.0028 -2.753253,-1.23841 -2.75047,-2.760546 L 68.79498,2.5831783 C 68.79698,1.4632039 67.891485,0.55434416 66.771511,0.55229673 L 33.79192,0.49200188 C 32.671947,0.4899572 31.763088,1.3954975 31.761038,2.5154719 Z"/><path style="fill:url(#linearGradient3519);fill-opacity:1" id="path20-7" d="m 69.238254,50.387301 11.846867,9.171742 c 0.860172,0.665942 2.096769,0.508554 2.762708,-0.351618 l 4.95669,-6.40241 c 0.458792,-0.592606 1.404594,-0.334796 1.499174,0.408326 l 9.413286,35.627655 c 0.1465,1.15103 -0.66777,2.202793 -1.8188,2.349289 L 61.04843,91.001492 c -0.74313,0.09458 -1.229628,-0.75649 -0.770836,-1.349097 l 4.956689,-6.402409 c 0.665938,-0.860173 0.508552,-2.096769 -0.351621,-2.762708 l -11.84687,-9.171742 c -0.6329,-0.489992 -0.74867,-1.399564 -0.25868,-2.032471 L 67.205783,50.645981 c 0.48999,-0.632907 1.399563,-0.748671 2.032471,-0.25868 z"/></g></svg>